<?xml version="1.0" encoding="utf-8"?>
<!-- Generator: Adobe Illustrator 25.2.3, SVG Export Plug-In . SVG Version: 6.00 Build 0)  -->
<svg version="1.1" id="typo" xmlns="http://www.w3.org/2000/svg" xmlns:xlink="http://www.w3.org/1999/xlink" x="0px" y="0px"
	 viewBox="0 0 56.6 11.2" style="enable-background:new 0 0 56.6 11.2;" xml:space="preserve">
<style type="text/css">
	.st0{fill:#E30613;}
	.st1{fill:#070606;}
</style>
<path class="st0" d="M1.1,9.8V1.3h2.6c0.7,0,1.4,0.2,2,0.5s1.1,0.8,1.4,1.4c0.3,0.7,0.5,1.4,0.5,2.1v0.4c0,0.7-0.2,1.5-0.5,2.1
	S6.3,8.9,5.7,9.2s-1.3,0.5-2,0.5H1.1V9.8z M2.8,2.7v5.7h0.9c0.6,0,1.2-0.2,1.6-0.7c0.4-0.6,0.6-1.2,0.6-1.9V5.4C6,4.7,5.8,4,5.4,3.4
	C5,2.9,4.4,2.7,3.8,2.7H2.8z"/>
<path class="st0" d="M11.8,9.8H10V1.3h1.8V9.8z"/>
<path class="st0" d="M19.4,8.1h-3.1l-0.6,1.8h-1.9L17,1.4h1.6l3.2,8.5h-1.9L19.4,8.1z M16.8,6.6h2.1l-1.1-3.2L16.8,6.6z"/>
<path class="st0" d="M26.4,7.7l1.9-6.4h2l-3,8.5h-1.8l-3-8.5h2L26.4,7.7z"/>
<path class="st0" d="M39.1,5.7c0,0.8-0.1,1.5-0.5,2.2c-0.3,0.6-0.7,1.1-1.3,1.5c-1.2,0.7-2.6,0.7-3.8,0c-0.6-0.3-1-0.9-1.3-1.5
	c-0.3-0.7-0.5-1.4-0.5-2.2V5.3c0-0.8,0.1-1.5,0.5-2.2c0.3-0.6,0.7-1.1,1.3-1.5c1.2-0.7,2.6-0.7,3.8,0c0.6,0.4,1,0.9,1.3,1.5
	c0.3,0.7,0.5,1.4,0.5,2.2V5.7z M37.3,5.4c0-0.7-0.1-1.4-0.5-2c-0.6-0.8-1.6-0.9-2.4-0.4c-0.1,0.1-0.3,0.2-0.4,0.4
	c-0.4,0.6-0.5,1.3-0.5,2v0.4c0,0.7,0.1,1.4,0.5,2c0.5,0.8,1.6,0.9,2.4,0.4c0.2-0.1,0.3-0.2,0.4-0.4c0.3-0.6,0.5-1.3,0.5-2V5.4z"/>
<path class="st0" d="M43.2,8.4h3.7v1.4h-5.5V1.3h1.8V8.4z"/>
<path class="st0" d="M54.2,6.1h-3.4v2.3h4v1.4H49V1.3h5.7v1.4h-3.9v2h3.4V6.1z"/>
<path class="st1" d="M1.4,10.2V1.7H4c0.7,0,1.4,0.2,2,0.5S7.1,3,7.4,3.6C7.7,4.3,7.9,5,7.9,5.7v0.4c0,0.7-0.2,1.5-0.5,2.1
	S6.6,9.3,6,9.6s-1.3,0.5-2,0.5L1.4,10.2L1.4,10.2z M3.1,3.1v5.7H4c0.6,0,1.2-0.2,1.6-0.7C6,7.5,6.2,6.9,6.2,6.2V5.8
	c0.1-0.7-0.1-1.4-0.5-2c-0.4-0.5-1-0.7-1.6-0.7L3.1,3.1z"/>
<path class="st1" d="M12.2,10.2h-1.8V1.7h1.8V10.2z"/>
<path class="st1" d="M19.7,8.5h-3.1L16,10.3h-1.9l3.2-8.5h1.6l3.2,8.5h-1.8L19.7,8.5z M17.1,7.1h2.1l-1.1-3.2L17.1,7.1z"/>
<path class="st1" d="M26.7,8.1l1.9-6.4h2l-3,8.5h-1.8l-3-8.5h2L26.7,8.1z"/>
<path class="st1" d="M39.4,6.2c0,0.8-0.1,1.5-0.5,2.2c-0.3,0.6-0.7,1.1-1.3,1.5c-1.2,0.7-2.6,0.7-3.8,0c-0.6-0.3-1-0.9-1.3-1.5
	C32.2,7.7,32,7,32,6.2V5.8c0-0.8,0.1-1.5,0.5-2.2c0.3-0.6,0.7-1.1,1.3-1.5c1.2-0.7,2.6-0.7,3.8,0c0.6,0.4,1,0.9,1.3,1.5
	c0.3,0.7,0.5,1.4,0.5,2.2C39.4,5.8,39.4,6.2,39.4,6.2z M37.7,5.8c0-0.7-0.1-1.4-0.5-2c-0.6-0.8-1.6-0.9-2.4-0.4
	c-0.1,0.1-0.3,0.2-0.4,0.4c-0.4,0.6-0.5,1.3-0.5,2v0.4c0,0.7,0.1,1.4,0.5,2C34.9,9,36,9.1,36.7,8.6c0.2-0.1,0.3-0.2,0.4-0.4
	c0.4-0.6,0.5-1.3,0.5-2L37.7,5.8L37.7,5.8z"/>
<path class="st1" d="M43.6,8.8h3.7v1.4h-5.5V1.7h1.8V8.8z"/>
<path class="st1" d="M54.5,6.6h-3.4v2.3h4v1.4h-5.8V1.7H55v1.4h-4v2h3.4L54.5,6.6z"/>
</svg>
