<?xml version="1.0" encoding="utf-8"?>
<!-- Generator: Adobe Illustrator 25.2.1, SVG Export Plug-In . SVG Version: 6.00 Build 0)  -->
<svg version="1.1" id="Capa_1" xmlns="http://www.w3.org/2000/svg" xmlns:xlink="http://www.w3.org/1999/xlink" x="0px" y="0px"
	 viewBox="0 0 13.3 13.6" style="enable-background:new 0 0 13.3 13.6;" xml:space="preserve">
<style type="text/css">
	.st0{fill:#8BD0E0;}
</style>
<path class="st0" d="M8.1,3.1L7.5,2.5L6.8,3.2l1.6,1.5L4.7,8.6L3.1,7L2.5,7.7l0.6,0.6L2.5,8.9l1,0.9l-0.7,0.6l0.6,0.6l0.6-0.6l1,0.9
	l0.6-0.6l0.7,0.6L7,10.8L5.4,9.2l3.7-3.9l1.6,1.6l0.6-0.7l-0.6-0.6L11.3,5l-1-0.9L11,3.4l-0.7-0.6L9.7,3.4l-1-0.9L8.1,3.1z"/>
</svg>
