<?xml version="1.0" encoding="utf-8"?>
<!-- Generator: Adobe Illustrator 25.2.1, SVG Export Plug-In . SVG Version: 6.00 Build 0)  -->
<svg version="1.1" id="typo" xmlns="http://www.w3.org/2000/svg" xmlns:xlink="http://www.w3.org/1999/xlink" x="0px" y="0px"
	 viewBox="0 0 239.2 51" style="enable-background:new 0 0 239.2 51;" xml:space="preserve">
<style type="text/css">
	.st0{fill:#FFFFFF;}
	.st1{fill:#FFFFFF;stroke:#FFFFFF;stroke-width:0.25;stroke-miterlimit:10.0002;}
	.st2{enable-background:new    ;}
</style>
<g>
	<g>
		<path class="st0" d="M51.1,36.1h-3.8c0-0.5-0.3-1.4-0.4-2.2c-1.8,2-4.5,3-7.3,2.7c-5.7,0.3-10.6-4-10.9-9.8c0-0.5,0-0.9,0-1.4
			c-0.3-6.1,4.4-11.2,10.5-11.4c0.5,0,0.9,0,1.4,0c6.9,0,9.9,3.8,10.5,6.9h-5.3c-0.9-2.1-3-3.3-5.2-3.1c-4.5,0-6.4,3.1-6.4,7.2
			s2,7.4,6.4,7.4c3.7,0,5.3-1.9,5.3-4.5v-0.3h-5.3v-4h10.3v12.5C50.9,36.1,51.1,36.1,51.1,36.1z"/>
		<path class="st0" d="M64.8,36.1v-7.7c0-0.3-0.1-0.5-0.3-0.7l-8.9-13.2h6.1c2.1,3.4,4.8,7.5,5.8,9.6c1.1-2,3.8-6.1,6-9.6h5.7
			L70,27.9c-0.1,0.2-0.1,0.4,0,0.6v7.7L64.8,36.1z"/>
		<path class="st0" d="M104.5,27.7c0-3.7,0-7.6,0-10l0,0c-1.1,4-3.1,10.4-5.7,18.4h-4.6c-2-7-4.3-14.2-5.4-18.4l0,0
			c0,2.5,0.4,6.7,0.4,10.4V36h-4.7V14.4H92c2.2,6.7,4.1,12.6,4.8,15.6l0,0c0.9-3.4,2.9-9.2,5-15.6h7.6v21.5h-4.9V27.7z"/>
		<path class="st0" d="M118.5,14.4h11.2c5,0,8.4,2.5,8.4,6.8s-3.1,7.1-8.4,7.1h-5.8v7.8h-5.3L118.5,14.4L118.5,14.4z M123.8,24.2
			h5.4c2.2,0,3.6-0.8,3.6-3.1s-1.1-2.7-3.6-2.7h-5.4C123.8,18.4,123.8,24.2,123.8,24.2z"/>
		<path class="st0" d="M145.1,14.4h5.3v17.4h12.1l-0.7,4.2h-16.7L145.1,14.4L145.1,14.4z"/>
		<path class="st0" d="M186.1,27H174v4.9h13.4l-0.6,4.2h-18V14.6h17.9v4.1H174v4.1h12.1V27L186.1,27z"/>
		<path class="st0" d="M198.3,29.6c0.6,1.9,2.1,3.1,5.7,3.1s4.3-1,4.3-2.4s-1-2.3-5.5-3.1c-7.5-1.3-8.9-3.7-8.9-6.6
			c0-4.3,4.1-6.5,9.2-6.5c7.4,0,9.4,3.8,9.6,6.3h-5.2c-0.3-1.1-1-2.5-4.6-2.5c-2.5,0-3.7,0.8-3.7,2.2s0.9,1.9,4.9,2.6
			c8.2,1.5,9.5,4,9.5,7.1c0,3.7-3.1,6.8-10.2,6.8c-7.1,0-9.8-3.1-10.5-6.9L198.3,29.6z"/>
		<path class="st0" d="M226.4,18.6h-7.6v-4.2h20.4v4.2h-7.6v17.5h-5.3V18.6H226.4z"/>
	</g>
	<g>
		<path class="st1" d="M51.1,36.1h-3.8c0-0.5-0.3-1.4-0.4-2.2c-1.8,2-4.5,3-7.3,2.7c-5.7,0.3-10.6-4-10.9-9.8c0-0.5,0-0.9,0-1.4
			c-0.3-6.1,4.4-11.2,10.5-11.4c0.5,0,0.9,0,1.4,0c6.9,0,9.9,3.8,10.5,6.9h-5.3c-0.9-2.1-3-3.3-5.2-3.1c-4.5,0-6.4,3.1-6.4,7.2
			s2,7.4,6.4,7.4c3.7,0,5.3-1.9,5.3-4.5v-0.3h-5.3v-4h10.3v12.5C50.9,36.1,51.1,36.1,51.1,36.1z"/>
		<path class="st1" d="M64.8,36.1v-7.7c0-0.3-0.1-0.5-0.3-0.7l-8.9-13.2h6.1c2.1,3.4,4.8,7.5,5.8,9.6c1.1-2,3.8-6.1,6-9.6h5.7
			L70,27.9c-0.1,0.2-0.1,0.4,0,0.6v7.7L64.8,36.1z"/>
		<path class="st1" d="M104.5,27.7c0-3.7,0-7.6,0-10l0,0c-1.1,4-3.1,10.4-5.7,18.4h-4.6c-2-7-4.3-14.2-5.4-18.4l0,0
			c0,2.5,0.4,6.7,0.4,10.4V36h-4.7V14.4H92c2.2,6.7,4.1,12.6,4.8,15.6l0,0c0.9-3.4,2.9-9.2,5-15.6h7.6v21.5h-4.9V27.7z"/>
		<path class="st1" d="M118.5,14.4h11.2c5,0,8.4,2.5,8.4,6.8s-3.1,7.1-8.4,7.1h-5.8v7.8h-5.3L118.5,14.4L118.5,14.4z M123.8,24.2
			h5.4c2.2,0,3.6-0.8,3.6-3.1s-1.1-2.7-3.6-2.7h-5.4C123.8,18.4,123.8,24.2,123.8,24.2z"/>
		<path class="st1" d="M145.1,14.4h5.3v17.4h12.1l-0.7,4.2h-16.7L145.1,14.4L145.1,14.4z"/>
		<path class="st1" d="M186.1,27H174v4.9h13.4l-0.6,4.2h-18V14.6h17.9v4.1H174v4.1h12.1V27L186.1,27z"/>
		<path class="st1" d="M198.3,29.6c0.6,1.9,2.1,3.1,5.7,3.1s4.3-1,4.3-2.4s-1-2.3-5.5-3.1c-7.5-1.3-8.9-3.7-8.9-6.6
			c0-4.3,4.1-6.5,9.2-6.5c7.4,0,9.4,3.8,9.6,6.3h-5.2c-0.3-1.1-1-2.5-4.6-2.5c-2.5,0-3.7,0.8-3.7,2.2s0.9,1.9,4.9,2.6
			c8.2,1.5,9.5,4,9.5,7.1c0,3.7-3.1,6.8-10.2,6.8c-7.1,0-9.8-3.1-10.5-6.9L198.3,29.6z"/>
		<path class="st1" d="M226.4,18.6h-7.6v-4.2h20.4v4.2h-7.6v17.5h-5.3V18.6H226.4z"/>
	</g>
</g>
<path class="st0" d="M17.4,2.1l-2-1.9l-1.9,2l5,4.8L6.9,18.8l-5-4.8L0,16l2,2l-1.9,2l3.1,2.9l-1.9,2l2,1.9l1.9-2l3.1,2.9l1.9-2
	l2,1.9l1.6-2l-4.9-4.8L20.4,8.9l4.9,4.8l1.9-2l-2-1.9l1.9-2L24,4.9l1.9-2l-2-1.9l-1.8,2.1l-3-3.1L17.4,2.1z"/>
<g class="st2">
	<path class="st0" d="M185.4,46.7c0,0.8-0.2,1.4-0.5,1.8c-0.3,0.4-0.8,0.7-1.4,0.7c-0.5,0-0.9-0.2-1.3-0.6l-0.1,0.5H181v-6.9h1.3
		v2.5c0.3-0.4,0.7-0.5,1.2-0.5c0.6,0,1.1,0.2,1.4,0.7C185.2,45.2,185.4,45.8,185.4,46.7L185.4,46.7z M184.1,46.6
		c0-0.5-0.1-0.9-0.2-1.1s-0.4-0.3-0.7-0.3c-0.4,0-0.7,0.2-0.9,0.5v1.9c0.2,0.3,0.4,0.5,0.9,0.5c0.4,0,0.7-0.2,0.8-0.6
		C184.1,47.3,184.1,47,184.1,46.6z"/>
	<path class="st0" d="M188,47.2l0.9-3h1.4l-2,5.6l-0.1,0.3c-0.3,0.6-0.8,1-1.4,1c-0.2,0-0.4,0-0.6-0.1v-1h0.2c0.2,0,0.4,0,0.6-0.1
		c0.1-0.1,0.2-0.2,0.3-0.4l0.2-0.4l-1.7-4.9h1.4L188,47.2z"/>
	<path class="st0" d="M192.9,46.6c0-0.5,0.1-0.9,0.3-1.3c0.2-0.4,0.5-0.7,0.8-0.9s0.8-0.3,1.2-0.3c0.7,0,1.2,0.2,1.6,0.6
		c0.4,0.4,0.6,0.9,0.7,1.6v0.3c0,0.7-0.2,1.3-0.6,1.8c-0.4,0.5-1,0.7-1.7,0.7s-1.3-0.2-1.7-0.7S192.9,47.4,192.9,46.6L192.9,46.6z
		 M194.2,46.7c0,0.5,0.1,0.8,0.3,1.1c0.2,0.2,0.4,0.4,0.7,0.4s0.6-0.1,0.7-0.4c0.2-0.2,0.3-0.6,0.3-1.2c0-0.5-0.1-0.8-0.3-1.1
		c-0.2-0.2-0.4-0.4-0.7-0.4s-0.6,0.1-0.7,0.4C194.3,45.8,194.2,46.1,194.2,46.7z"/>
	<path class="st0" d="M201.1,45.4c-0.2,0-0.3,0-0.5,0c-0.5,0-0.8,0.2-1,0.5V49h-1.3v-4.9h1.2v0.6c0.3-0.4,0.6-0.7,1.1-0.7
		c0.1,0,0.3,0,0.4,0.1L201.1,45.4z"/>
	<path class="st0" d="M201.7,42.9c0-0.2,0.1-0.4,0.2-0.5c0.1-0.1,0.3-0.2,0.5-0.2s0.4,0.1,0.5,0.2c0.1,0.1,0.2,0.3,0.2,0.5
		s-0.1,0.4-0.2,0.5s-0.3,0.2-0.5,0.2s-0.4-0.1-0.5-0.2S201.7,43.1,201.7,42.9z M203.1,49h-1.3v-4.9h1.3V49z"/>
	<path class="st0" d="M204,46.6c0-0.5,0.1-0.9,0.3-1.3c0.2-0.4,0.5-0.7,0.8-0.9s0.8-0.3,1.2-0.3c0.7,0,1.2,0.2,1.6,0.6
		s0.6,0.9,0.7,1.6v0.3c0,0.7-0.2,1.3-0.6,1.8c-0.4,0.5-1,0.7-1.7,0.7s-1.3-0.2-1.7-0.7C204.2,48,204,47.4,204,46.6L204,46.6z
		 M205.3,46.7c0,0.5,0.1,0.8,0.3,1.1s0.4,0.4,0.7,0.4s0.6-0.1,0.7-0.4c0.2-0.2,0.3-0.6,0.3-1.2c0-0.5-0.1-0.8-0.3-1.1
		c-0.2-0.2-0.4-0.4-0.7-0.4s-0.6,0.1-0.7,0.4S205.3,46.1,205.3,46.7z"/>
	<path class="st0" d="M210.6,44.2v0.6c0.3-0.4,0.8-0.7,1.4-0.7c0.5,0,0.9,0.2,1.2,0.5s0.4,0.8,0.4,1.4v3h-1.3v-3.1
		c0-0.3-0.1-0.5-0.2-0.6c-0.1-0.1-0.3-0.2-0.6-0.2c-0.4,0-0.6,0.2-0.8,0.5V49h-1.3v-4.9h1.2V44.2z"/>
	<path class="st0" d="M221.2,46.7c0,0.8-0.2,1.4-0.5,1.8c-0.3,0.4-0.8,0.7-1.4,0.7c-0.5,0-0.9-0.2-1.3-0.6V49h-1.2v-6.9h1.3v2.5
		c0.3-0.4,0.7-0.5,1.2-0.5c0.6,0,1.1,0.2,1.4,0.7C221,45.2,221.2,45.8,221.2,46.7L221.2,46.7z M219.9,46.6c0-0.5-0.1-0.9-0.2-1.1
		s-0.4-0.3-0.7-0.3c-0.4,0-0.7,0.2-0.9,0.5v1.9c0.2,0.3,0.4,0.5,0.9,0.5c0.4,0,0.7-0.2,0.8-0.6C219.9,47.3,219.9,47,219.9,46.6z"/>
	<path class="st0" d="M224.3,49.1c-0.7,0-1.3-0.2-1.7-0.7c-0.4-0.4-0.7-1-0.7-1.8v-0.1c0-0.5,0.1-0.9,0.3-1.3s0.5-0.7,0.8-0.9
		s0.7-0.3,1.2-0.3c0.7,0,1.2,0.2,1.6,0.6c0.4,0.4,0.6,1,0.6,1.8V47h-3.1c0,0.3,0.2,0.6,0.4,0.8s0.5,0.3,0.8,0.3
		c0.5,0,0.9-0.2,1.2-0.5l0.6,0.7c-0.2,0.3-0.5,0.5-0.8,0.6S224.7,49.1,224.3,49.1z M224.1,45.1c-0.3,0-0.5,0.1-0.6,0.3
		c-0.2,0.2-0.3,0.4-0.3,0.8h1.8V46c0-0.3-0.1-0.5-0.2-0.7C224.6,45.2,224.4,45.1,224.1,45.1z"/>
	<path class="st0" d="M228.4,49h-1.3v-6.9h1.3V49z"/>
	<path class="st0" d="M231,43v1.2h0.8v1H231v2.4c0,0.2,0,0.3,0.1,0.4c0.1,0.1,0.2,0.1,0.4,0.1c0.1,0,0.3,0,0.4,0v1
		c-0.3,0.1-0.5,0.1-0.8,0.1c-0.9,0-1.4-0.5-1.4-1.4v-2.6H229v-1h0.7V43H231z"/>
</g>
</svg>
